Coordinates
version=1
nRows=4
nColumns=107
inDegrees=yes

Units are S.I. units (second, meters, Newtons, ...)
If the header above contains a line with 'inDegrees', this indicates whether rotational values are in degrees (yes) or radians (no).

endheader
time	sternoclavicular_r2	sternoclavicular_r3	unrotscap_r3	unrotscap_r2	acromioclavicular_r2	acromioclavicular_r3	acromioclavicular_r1	unrothum_r1	unrothum_r3	unrothum_r2	elv_angle	shoulder_elv	shoulder1_r2	shoulder_rot	elbow_flexion	pro_sup	deviation	flexion	proximal_distal_r1	proximal_distal_r3	cmc_flexion	cmc_abduction	mp_flexion	ip_flexion	mcp2_flexion	mcp2_abduction	pm2_flexion	md2_flexion	mcp3_flexion	mcp3_abduction	pm3_flexion	md3_flexion	mcp4_flexion	mcp4_abduction	pm4_flexion	md4_flexion	mcp5_flexion	mcp5_abduction	pm5_flexion	md5_flexion	bicpt_tx	bicpt_ty	bicpt_tz	bicpt2_tx	bicpt2_ty	bicpt2_tz	ptpt_tx	ptpt_ty	ptpt_tz	FCUpt_tx	FCUpt_ty	FCUpt_tz	EDCpt_tx	EDCpt_ty	EDCpt_tz	APLpt_tx	APLpt_ty	APLpt_tz	FPLpt_tx	FPLpt_ty	FPLpt_tz	FPLpt2_tx	FPLpt2_ty	FPLpt2_tz	PEC1pt2_tx	PEC1pt2_ty	PEC1pt2_tz	PEC1pt3_tx	PEC1pt3_ty	PEC1pt3_tz	PEC2pt2_tx	PEC2pt2_ty	PEC2pt2_tz	PEC2pt3_tx	PEC2pt3_ty	PEC2pt3_tz	PEC3pt2_tx	PEC3pt2_ty	PEC3pt2_tz	PEC3pt3_tx	PEC3pt3_ty	PEC3pt3_tz	DELT2pt2a_tx	DELT2pt2a_ty	DELT2pt2a_tz	DELT2pt2_tx	DELT2pt2_ty	DELT2pt2_tz	LAT1pt2_tx	LAT1pt2_ty	LAT1pt2_tz	LAT1pt3_tx	LAT1pt3_ty	LAT1pt3_tz	LAT2pt2_tx	LAT2pt2_ty	LAT2pt2_tz	LAT2pt3_tx	LAT2pt3_ty	LAT2pt3_tz	LAT3pt2_tx	LAT3pt2_ty	LAT3pt2_tz	LAT3pt3_tx	LAT3pt3_ty	LAT3pt3_tz
      0.00000000	     -0.32989658	      0.13972862	     -0.13972862	      0.32989658	     -0.06679735	      0.53983266	      0.24265106	     -0.24265106	     -0.53983266	      0.06679735	     98.01212994	     78.10594738	     -1.71063437	    -16.13692253	     28.93720497	     35.03530008	      0.15800457	     -0.12747539	      0.19400080	     -0.06373770	     36.06429548	     -3.23823740	    -12.97064744	      6.90651783	     -7.00691243	      3.89393214	     20.09673995	    -18.09736154	     -4.45420439	     -4.38735067	      6.77106399	     10.16297060	     -8.40603619	     -5.94347661	     -9.55444673	     20.64755162	    -23.16250721	    -13.27422988	     -3.80865725	      5.01744313	      0.00085715	     -0.03091665	     -0.00483422	      0.01653694	     -0.01806093	     -0.00798274	      0.00496129	     -0.06657390	     -0.00287228	      0.00728420	     -0.18359484	     -0.00034190	     -0.00420423	      0.00118209	      0.00017538	      0.00011682	      0.00004673	      0.00023363	      0.00014953	      0.00044858	      0.00025232	     -0.00001285	     -0.00017904	     -0.00021485	      0.00256014	      0.00898219	      0.00624848	     -0.00837470	      0.02022078	     -0.01917937	      0.00256014	      0.00898219	      0.00624848	      0.00056410	      0.01874544	     -0.00985004	      0.00402065	      0.00499488	      0.01614262	      0.00000000	      0.00816162	      0.00000000	     -0.00733329	     -0.03388933	     -0.00673169	      0.01144725	     -0.00031636	     -0.00207852	     -0.00091124	      0.01527406	     -0.00624848	      0.00251675	      0.02204325	     -0.01822474	     -0.00611830	      0.01323463	     -0.00559760	     -0.01275732	      0.02794460	     -0.03128580	     -0.02395251	      0.01479675	     -0.00750686	     -0.01588156	      0.03228382	     -0.03909640
      0.03333333	     -0.32993812	      0.13974622	     -0.13974622	      0.32993812	     -0.06680576	      0.53990064	      0.24268162	     -0.24268162	     -0.53990064	      0.06680576	     97.98922911	     78.11578301	     -1.71023468	    -16.14677290	     28.92394442	     35.03324778	      0.15803775	     -0.12748815	      0.19403649	     -0.06374408	     36.06454140	     -3.23833643	    -12.97064517	      6.90674998	     -7.00758157	      3.89419486	     20.09658488	    -18.09751162	     -4.45519695	     -4.38780540	      6.77126543	     10.16301450	     -8.40575199	     -5.94537654	     -9.55427943	     20.64745592	    -23.16390994	    -13.27366299	     -3.80921078	      5.01741948	      0.00085671	     -0.03091513	     -0.00483398	      0.01653691	     -0.01805733	     -0.00798294	      0.00496144	     -0.06657381	     -0.00287212	      0.00728400	     -0.18359488	     -0.00034187	     -0.00420398	      0.00118201	      0.00017539	      0.00011683	      0.00004673	      0.00023365	      0.00014954	      0.00044862	      0.00025235	     -0.00001285	     -0.00017903	     -0.00021484	      0.00256046	      0.00898332	      0.00624927	     -0.00837575	      0.02022333	     -0.01918178	      0.00256046	      0.00898332	      0.00624927	      0.00056417	      0.01874780	     -0.00985128	      0.00402102	      0.00499551	      0.01614348	      0.00000000	      0.00816369	      0.00000000	     -0.00733421	     -0.03389360	     -0.00673340	      0.01145344	     -0.00031665	     -0.00208132	     -0.00091135	      0.01527599	     -0.00624927	      0.00251707	      0.02204603	     -0.01822703	     -0.00611907	      0.01323630	     -0.00559830	     -0.01275892	      0.02794811	     -0.03128974	     -0.02395553	      0.01479861	     -0.00750780	     -0.01588356	      0.03228788	     -0.03910132
      0.06666667	     -0.32984824	      0.13970814	     -0.13970814	      0.32984824	     -0.06678756	      0.53975355	      0.24261551	     -0.24261551	     -0.53975355	      0.06678756	     98.07887639	     78.09450162	     -1.71179932	    -16.42196484	     28.81317005	     35.57339081	      0.15191694	     -0.12379229	      0.18728255	     -0.06189614	     35.57546155	     -4.42008262	     -9.74645058	      1.81078907	     -8.50414294	      3.76904971	     21.75619788	    -19.96953966	     -5.71566616	     -4.85000560	      7.45470912	     12.60235556	     -9.23576701	     -6.98558333	    -10.23175689	     24.70389241	    -24.07081459	    -13.20051874	     -3.10468483	      5.06079104	      0.00085305	     -0.03090243	     -0.00483193	      0.01654373	     -0.01802724	     -0.00792885	      0.00492153	     -0.06659961	     -0.00291563	      0.00733759	     -0.18358437	     -0.00034762	     -0.00426880	      0.00120320	      0.00017289	      0.00011382	      0.00004553	      0.00022765	      0.00014569	      0.00043708	      0.00024586	     -0.00001283	     -0.00018627	     -0.00022352	      0.00255977	      0.00898088	      0.00624757	     -0.00837347	      0.02021782	     -0.01917655	      0.00255977	      0.00898088	      0.00624757	      0.00056402	      0.01874270	     -0.00984859	      0.00402022	      0.00499415	      0.01614161	      0.00000000	      0.00815921	      0.00000000	     -0.00733221	     -0.03388437	     -0.00672969	      0.01162592	     -0.00032467	     -0.00216000	     -0.00091110	      0.01527183	     -0.00624757	      0.00251638	      0.02204002	     -0.01822207	     -0.00611741	      0.01323269	     -0.00559678	     -0.01275545	      0.02794050	     -0.03128121	     -0.02394900	      0.01479458	     -0.00750576	     -0.01587923	      0.03227909	     -0.03909067
      0.10000000	     -0.33005866	      0.13979727	     -0.13979727	      0.33005866	     -0.06683016	      0.54009788	      0.24277028	     -0.24277028	     -0.54009788	      0.06683016	     98.02306205	     78.14432100	     -1.71082518	    -16.08145691	     28.80305610	     35.07365026	      0.16028747	     -0.12465334	      0.19650354	     -0.06232667	     35.76502557	     -3.69356625	     -9.87068520	      0.52533345	     -7.82677397	      4.15395595	     22.04653585	    -21.05054903	     -4.33951332	     -4.77081171	      5.85062665	     11.54826450	     -8.85810374	     -6.83808952	    -10.03349081	     25.15462786	    -24.29807528	    -13.11856892	     -2.04844723	      4.97263559	      0.00085272	     -0.03090127	     -0.00483175	      0.01653745	     -0.01802449	     -0.00797891	      0.00495845	     -0.06657574	     -0.00287537	      0.00728800	     -0.18359410	     -0.00034231	     -0.00420883	      0.00118359	      0.00017521	      0.00011453	      0.00004581	      0.00022905	      0.00014659	      0.00043978	      0.00024738	     -0.00001284	     -0.00018350	     -0.00022020	      0.00256140	      0.00898660	      0.00625155	     -0.00837881	      0.02023071	     -0.01918879	      0.00256140	      0.00898660	      0.00625155	      0.00056438	      0.01875465	     -0.00985488	      0.00402207	      0.00499734	      0.01614599	      0.00000000	      0.00816970	      0.00000000	     -0.00733689	     -0.03390598	     -0.00673839	      0.01141237	     -0.00031475	     -0.00206282	     -0.00091168	      0.01528157	     -0.00625155	      0.00251799	      0.02205408	     -0.01823369	     -0.00612131	      0.01324113	     -0.00560035	     -0.01276358	      0.02795833	     -0.03130117	     -0.02396428	      0.01480402	     -0.00751054	     -0.01588936	      0.03229968	     -0.03911561
